# xmcd CD database file
#
# Track frame offsets:
#	150
#	17149
#	39234
#	59938
#	83643
#	105093
#	127352
#	144897
#	162101
#	179788
#	199345
#	220566
#	243918
#	259713
#	271785
#	283509
#	306387
#
# Disc length: 4365 seconds
#
# Revision: 3
# Processed by: cddbd v1.5.1PL0 Copyright (c) Steve Scherf et al.
# Submitted via: CDex 1.51
#
DISCID=f3110b11
DTITLE=Enrico Ruggeri - Il Mio Cuore Grande
DYEAR=2002
DGENRE=Pop
TTITLE0=Primavera a Sarajevo
TTITLE1=Neve al sole
TTITLE2=Il mio cuore grande
TTITLE3=I dubbi dell'amore
TTITLE4=La poesia
TTITLE5=Volti perduti
TTITLE6=Notte di calore
TTITLE7=E Geppetto rimase di nuovo solo
TTITLE8=Il mercato dell'usato
TTITLE9=Il fantasista
TTITLE10=Inevitabilmente
TTITLE11=L'isola del tesoro
TTITLE12=Per amore dei tuoi occhi blu
TTITLE13=Il prestigiatore
TTITLE14=Il Natale dei ricordi
TTITLE15=La gente di cuore
TTITLE16=Quando i vecchi si innamorano
EXTD=YEAR: 2002
EXTT0=
EXTT1=
EXTT2=
EXTT3=
EXTT4=
EXTT5=
EXTT6=
EXTT7=
EXTT8=
EXTT9=
EXTT10=
EXTT11=
EXTT12=
EXTT13=
EXTT14=
EXTT15=
EXTT16=
PLAYORDER=
